<svg width="68" height="61" viewBox="0 0 68 61" fill="none" xmlns="http://www.w3.org/2000/svg">
<path d="M3.95198 60.7208L25.1344 60.5552C27.0577 60.5401 28.6063 58.9679 28.5913 57.0457L28.426 35.874C28.411 33.9517 26.838 32.404 24.9148 32.419L14.7762 32.4983C14.8656 26.9535 16.1198 22.5072 18.5329 19.1522C20.4353 16.5045 23.3308 14.3022 27.2126 12.5513C28.9972 11.7504 29.7542 9.62704 28.9042 7.86456L26.3544 2.59117C25.5328 0.898377 23.5271 0.168896 21.8048 0.92753C17.2079 2.95556 13.332 5.50698 10.179 8.59628C6.33357 12.3662 3.71205 16.6075 2.31324 21.3267C0.914436 26.0458 0.247216 32.4726 0.310837 40.6209L0.440797 57.2658C0.455804 59.1879 2.02893 60.7358 3.95198 60.7208ZM60.554 0.638619C56.0124 2.65897 52.1579 5.21021 48.9835 8.29286C45.1036 12.0631 42.4678 16.2904 41.0688 20.9749C39.6699 25.6592 39.0026 32.1069 39.0667 40.3179L39.1967 56.9628C39.2117 58.885 40.7846 60.4328 42.7078 60.4178L63.8905 60.2521C65.8136 60.2371 67.3623 58.6649 67.3473 56.7427L67.182 35.5709C67.167 33.6487 65.594 32.1009 63.6708 32.116L53.5324 32.1952C53.6215 26.6505 54.8759 22.2042 57.2887 18.8491C59.1913 16.2014 62.0869 13.9991 65.9685 12.2482C67.7532 11.4473 68.5101 9.324 67.6601 7.56152L65.1174 2.30215C64.2958 0.609357 62.2762 -0.127262 60.554 0.638619Z" fill="#3F3939"/>
</svg>
